<?xml version="1.0" standalone="no"?>
<!DOCTYPE svg PUBLIC "-//W3C//DTD SVG 20010904//EN"
 "http://www.w3.org/TR/2001/REC-SVG-20010904/DTD/svg10.dtd">
<svg version="1.0" xmlns="http://www.w3.org/2000/svg"
 width="1536.000000pt" height="688.000000pt" viewBox="0 0 1536.000000 688.000000"
 preserveAspectRatio="xMidYMid meet">

<g transform="translate(0.000000,688.000000) scale(0.100000,-0.100000)"
fill="#ffffff" stroke="none">
<path d="M2692 4567 c-41 -44 -16 -107 42 -107 60 0 88 68 46 110 -27 27 -62
25 -88 -3z"/>
<path d="M4536 4548 c-22 -31 -20 -64 4 -88 41 -41 110 -13 110 44 0 41 -26
66 -68 66 -21 0 -36 -7 -46 -22z"/>
<path d="M2343 4500 c-26 -11 -43 -40 -43 -73 0 -59 101 -93 134 -45 46 65
-19 148 -91 118z"/>
<path d="M4916 4439 c-19 -15 -26 -30 -26 -55 0 -47 13 -69 49 -84 56 -23 122
34 107 93 -15 62 -80 85 -130 46z"/>
<path d="M4279 4371 c-17 -18 -29 -40 -29 -56 0 -32 49 -85 79 -85 50 0 91 41
91 91 0 30 -53 79 -85 79 -16 0 -38 -12 -56 -29z"/>
<path d="M2925 4365 c-51 -50 -15 -135 58 -135 70 0 103 85 52 135 -15 16 -36
25 -55 25 -19 0 -40 -9 -55 -25z"/>
<path d="M5719 4354 c-57 -17 -132 -94 -148 -150 -8 -27 -11 -372 -11 -1099
l0 -1060 24 -51 c83 -179 344 -178 427 1 17 38 19 77 19 628 0 358 4 586 9
582 5 -3 53 -85 107 -183 61 -111 113 -192 139 -217 63 -62 149 -80 234 -50
80 28 102 55 217 262 l109 198 5 -590 c3 -325 9 -599 14 -610 24 -53 71 -107
109 -127 65 -35 176 -32 239 5 26 15 57 41 69 58 50 70 49 50 49 1150 0 705
-3 1044 -11 1079 -37 175 -249 246 -382 129 -31 -26 -66 -78 -112 -161 -247
-448 -379 -678 -386 -671 -10 10 -155 265 -320 562 -137 249 -172 292 -252
316 -61 18 -88 18 -148 -1z"/>
<path d="M7662 4351 c-62 -21 -104 -58 -132 -116 -20 -41 -20 -62 -20 -1121 0
-1022 1 -1081 19 -1119 24 -53 90 -111 141 -125 27 -7 176 -10 453 -8 l412 3
48 28 c71 42 101 94 106 184 2 53 -2 87 -14 118 -21 57 -91 119 -150 134 -26
7 -143 11 -294 11 l-251 0 0 269 0 269 198 4 c196 3 197 3 245 31 93 55 134
163 103 271 -21 70 -57 113 -121 142 -47 22 -62 24 -237 24 l-188 0 0 269 0
270 273 3 c256 3 274 4 312 25 47 25 86 64 111 113 26 50 24 152 -4 206 -28
56 -93 109 -147 123 -28 7 -180 11 -427 11 -345 -1 -388 -2 -436 -19z"/>
<path d="M9033 4356 c-59 -19 -118 -68 -143 -120 l-21 -44 -1 -1074 c-2 -1213
-8 -1121 79 -1197 116 -103 295 -70 369 69 18 33 19 74 24 630 l5 595 99 -180
c113 -204 162 -263 239 -284 84 -24 185 6 243 71 11 12 65 103 118 201 54 97
102 180 107 183 5 3 9 -234 9 -581 0 -469 3 -592 13 -618 20 -48 64 -95 111
-120 58 -30 165 -30 223 1 50 26 96 80 112 131 16 57 16 2128 -1 2185 -19 63
-100 140 -165 155 -102 25 -207 -17 -261 -103 -15 -24 -119 -210 -232 -414
-113 -204 -208 -371 -211 -372 -3 0 -97 165 -209 368 -248 449 -252 454 -299
485 -69 46 -133 56 -208 33z"/>
<path d="M11850 4353 c-523 -80 -937 -499 -1026 -1038 -25 -156 -15 -364 25
-520 121 -462 484 -813 943 -910 105 -23 286 -30 393 -16 526 69 947 477 1051
1019 23 117 22 348 -1 457 -87 416 -321 726 -679 901 -223 108 -462 145 -706
107z m292 -468 c75 -7 200 -53 274 -100 70 -45 175 -143 216 -203 48 -70 96
-175 120 -264 32 -117 31 -299 -1 -413 -77 -275 -280 -481 -541 -551 -89 -24
-263 -24 -349 0 -145 40 -277 119 -372 225 -75 82 -116 155 -157 274 -61 179
-56 397 15 574 78 196 250 359 452 429 73 26 191 43 251 38 19 -2 61 -6 92 -9z"/>
<path d="M2563 4246 c-65 -55 -68 -132 -7 -185 119 -105 275 70 159 179 -16
15 -41 24 -73 28 -41 3 -52 0 -79 -22z"/>
<path d="M4631 4233 c-74 -39 -89 -133 -31 -191 49 -50 118 -50 169 -2 101 94
-16 257 -138 193z"/>
<path d="M3978 4174 c-58 -31 -77 -127 -36 -179 66 -84 188 -60 218 42 31 102
-86 190 -182 137z"/>
<path d="M3213 4165 c-119 -51 -78 -235 52 -235 131 0 171 185 50 236 -42 17
-61 17 -102 -1z"/>
<path d="M5019 4069 c-45 -45 0 -122 63 -106 33 9 54 56 39 86 -23 43 -70 52
-102 20z"/>
<path d="M2875 3966 c-86 -38 -123 -152 -72 -226 38 -57 71 -75 137 -75 44 0
66 5 87 21 47 35 73 82 73 132 0 117 -119 195 -225 148z"/>
<path d="M4284 3956 c-95 -42 -119 -180 -43 -255 80 -80 209 -59 259 43 65
136 -74 273 -216 212z"/>
<path d="M3584 3896 c-81 -37 -117 -147 -73 -226 31 -54 75 -81 137 -82 90 0
151 54 160 141 5 61 -16 111 -62 146 -44 33 -115 43 -162 21z"/>
<path d="M2405 3850 c-38 -42 -7 -110 50 -110 24 0 65 42 65 65 0 7 -9 24 -21
39 -25 32 -68 35 -94 6z"/>
<path d="M4815 3850 c-29 -11 -44 -32 -51 -68 -5 -26 -1 -36 24 -62 34 -33 66
-38 100 -14 52 36 48 110 -9 139 -31 17 -36 17 -64 5z"/>
<path d="M3931 3669 c-72 -29 -131 -114 -131 -189 1 -73 58 -153 132 -184 54
-23 107 -20 167 10 189 95 121 376 -91 373 -29 0 -64 -5 -77 -10z"/>
<path d="M3182 3644 c-160 -80 -145 -319 24 -374 53 -18 136 -8 177 20 104 71
124 209 44 305 -62 76 -155 94 -245 49z"/>
<path d="M2619 3615 c-31 -17 -59 -70 -59 -112 0 -41 32 -87 75 -107 128 -61
236 109 129 203 -27 24 -44 31 -77 31 -23 -1 -54 -7 -68 -15z"/>
<path d="M4532 3604 c-83 -42 -83 -177 0 -220 79 -41 178 21 178 111 0 91 -97
150 -178 109z"/>
<path d="M3555 3322 c-97 -46 -148 -124 -148 -227 -1 -138 107 -245 248 -245
76 0 128 24 182 83 102 111 77 292 -51 372 -63 39 -168 46 -231 17z"/>
<path d="M2895 3230 c-62 -31 -80 -63 -80 -140 0 -77 19 -109 81 -140 51 -25
87 -25 140 1 57 27 86 75 86 139 0 62 -26 108 -78 137 -49 28 -97 29 -149 3z"/>
<path d="M4244 3239 c-45 -13 -100 -78 -109 -128 -29 -173 216 -256 298 -100
25 46 19 125 -13 169 -24 33 -90 70 -125 69 -11 0 -34 -5 -51 -10z"/>
<path d="M3175 2945 c-74 -26 -135 -117 -135 -200 0 -40 31 -104 66 -137 66
-62 149 -73 232 -32 123 61 147 222 48 320 -60 61 -131 77 -211 49z"/>
<path d="M3946 2900 c-183 -58 -199 -311 -24 -385 70 -29 162 -13 216 38 65
60 81 167 39 248 -41 77 -152 124 -231 99z"/>
<path d="M2614 2831 c-30 -19 -54 -64 -54 -103 0 -35 32 -88 61 -103 98 -51
207 34 178 139 -21 77 -114 110 -185 67z"/>
<path d="M4504 2797 c-46 -42 -56 -100 -25 -150 56 -90 191 -71 222 32 22 74
-40 151 -124 151 -28 0 -46 -8 -73 -33z"/>
<path d="M3564 2571 c-49 -12 -90 -47 -108 -91 -22 -54 -20 -95 5 -139 30 -54
64 -74 131 -79 77 -6 128 25 153 92 48 126 -54 247 -181 217z"/>
<path d="M2875 2555 c-156 -55 -145 -270 14 -306 77 -18 171 38 191 112 34
124 -86 237 -205 194z"/>
<path d="M4262 2530 c-46 -28 -72 -76 -72 -133 0 -86 54 -150 135 -163 99 -14
192 75 182 175 -12 113 -148 180 -245 121z"/>
<path d="M2393 2520 c-28 -12 -43 -40 -43 -84 0 -68 86 -101 135 -51 35 34 33
78 -4 116 -30 30 -50 34 -88 19z"/>
<path d="M4802 2500 c-31 -13 -55 -71 -43 -104 12 -30 48 -56 79 -56 13 0 37
14 54 30 25 26 29 36 24 63 -11 56 -64 87 -114 67z"/>
<path d="M3188 2274 c-77 -41 -75 -169 2 -209 107 -55 224 62 164 165 -34 56
-108 76 -166 44z"/>
<path d="M3970 2252 c-123 -61 -59 -253 75 -228 110 21 138 168 43 226 -41 25
-72 25 -118 2z"/>
<path d="M2186 2238 c-32 -46 -6 -98 49 -98 57 0 85 60 45 100 -27 27 -75 26
-94 -2z"/>
<path d="M5002 2224 c-46 -32 -18 -114 39 -114 46 0 75 42 59 84 -16 44 -60
57 -98 30z"/>
<path d="M2554 2200 c-56 -22 -86 -103 -61 -163 38 -90 179 -90 222 -1 25 52
15 101 -30 142 -36 33 -83 41 -131 22z"/>
<path d="M4630 2187 c-64 -22 -98 -106 -67 -167 17 -34 74 -70 111 -70 37 0
90 30 107 61 16 31 16 92 0 123 -28 51 -92 74 -151 53z"/>
<path d="M2920 1997 c-14 -7 -31 -25 -38 -39 -28 -58 23 -125 87 -114 44 7 60
23 67 67 11 63 -60 115 -116 86z"/>
<path d="M4265 1955 c-75 -74 33 -187 110 -115 52 49 16 140 -55 140 -19 0
-40 -9 -55 -25z"/>
<path d="M4892 1877 c-30 -32 -29 -81 3 -112 48 -49 125 -16 125 54 0 72 -81
108 -128 58z"/>
<path d="M2309 1861 c-35 -36 -37 -61 -6 -97 28 -32 78 -36 108 -8 30 27 26
87 -7 113 -36 28 -60 26 -95 -8z"/>
<path d="M2680 1750 c-24 -24 -26 -53 -4 -74 31 -32 94 -7 94 37 0 21 -35 57
-55 57 -8 0 -24 -9 -35 -20z"/>
<path d="M4533 1760 c-46 -18 -56 -74 -20 -108 53 -50 129 0 105 69 -7 20 -48
53 -61 48 -1 0 -12 -4 -24 -9z"/>
</g>
</svg>
