<?xml version="1.0" standalone="no"?>
<!DOCTYPE svg PUBLIC "-//W3C//DTD SVG 20010904//EN"
 "http://www.w3.org/TR/2001/REC-SVG-20010904/DTD/svg10.dtd">
<svg version="1.0" xmlns="http://www.w3.org/2000/svg"
 width="1536.000000pt" height="688.000000pt" viewBox="0 0 1536.000000 688.000000"
 preserveAspectRatio="xMidYMid meet">

<g transform="translate(0.000000,688.000000) scale(0.100000,-0.100000)"
fill="#000000" stroke="none">
<path d="M0 3440 l0 -3440 7680 0 7680 0 0 3440 0 3440 -7680 0 -7680 0 0
-3440z m5968 1175 c68 -20 105 -54 138 -123 83 -177 447 -902 453 -902 4 0
110 208 236 462 245 493 270 533 351 564 87 33 207 -6 259 -84 50 -76 49 -60
50 -1422 0 -701 -4 -1297 -8 -1323 -10 -58 -62 -121 -122 -148 -55 -26 -154
-25 -204 1 -38 19 -90 76 -106 115 -26 67 -34 195 -24 420 5 127 9 457 7 734
l-3 504 -123 -249 c-68 -137 -133 -260 -145 -272 -84 -91 -252 -88 -339 5 -14
15 -82 141 -150 278 l-123 250 -3 -445 c-2 -268 1 -537 9 -675 13 -249 8 -479
-12 -535 -33 -92 -116 -151 -214 -151 -121 0 -214 84 -229 207 -3 22 -10 390
-16 818 -9 595 -9 817 0 940 7 89 11 265 11 391 -2 339 8 479 40 541 21 41 36
54 88 82 70 36 104 39 179 17z m2698 -20 c116 -71 141 -245 49 -352 -62 -73
-80 -76 -410 -77 l-290 -1 -3 -602 c-1 -332 -1 -604 0 -605 2 0 95 -4 208 -7
240 -7 260 -13 312 -93 75 -118 35 -277 -86 -341 -38 -19 -57 -21 -236 -23
l-195 -1 -3 -206 -2 -206 297 -3 c283 -3 300 -4 338 -25 114 -61 156 -182 104
-303 -12 -28 -35 -62 -52 -76 -63 -53 -65 -53 -525 -55 -422 -1 -429 -1 -480
21 -70 30 -117 84 -132 151 -8 40 -10 395 -8 1354 3 1227 4 1302 21 1340 23
52 63 94 107 113 55 23 177 30 571 28 l366 -1 49 -30z m483 19 c28 -8 65 -27
81 -42 20 -18 110 -188 265 -496 129 -258 238 -473 243 -478 4 -4 114 205 244
466 144 288 247 484 265 501 74 71 180 82 271 29 109 -64 109 -62 118 -633 4
-259 10 -471 14 -471 4 0 13 26 20 58 53 241 229 535 422 704 252 221 522 341
828 367 249 21 491 -24 715 -133 412 -201 693 -573 796 -1054 30 -142 37 -393
14 -536 -87 -554 -417 -986 -903 -1180 -191 -76 -339 -101 -561 -93 -263 9
-461 72 -711 225 -167 102 -200 133 -319 292 -147 196 -231 359 -276 534 -12
50 -26 83 -30 76 -4 -6 -6 -201 -4 -433 5 -529 1 -565 -72 -634 -75 -71 -190
-88 -273 -39 -71 42 -100 89 -120 197 -15 80 -16 120 -7 318 14 321 25 1251
14 1251 -5 0 -62 -109 -128 -242 -66 -133 -131 -255 -144 -270 -88 -107 -285
-92 -359 26 -15 24 -76 143 -137 265 -60 121 -112 221 -115 221 -3 0 -2 -332
3 -737 4 -406 5 -769 1 -806 -9 -117 -37 -170 -112 -218 -39 -24 -56 -29 -111
-29 -119 0 -211 76 -230 190 -27 156 -28 2058 -2 2505 11 193 34 243 136 291
59 28 92 30 164 8z m-6371 -77 c6 -51 -53 -88 -86 -55 -16 16 -15 61 0 76 7 7
29 12 48 10 30 -3 35 -7 38 -31z m1843 13 c28 -16 25 -65 -5 -86 -34 -21 -67
-14 -85 18 -22 39 -2 78 39 78 17 0 40 -5 51 -10z m-2207 -71 c47 -37 23 -109
-37 -109 -41 0 -53 9 -66 43 -17 44 -13 57 22 72 43 19 50 18 81 -6z m2602
-46 c16 -22 18 -67 3 -94 -35 -66 -143 -25 -125 47 15 57 92 87 122 47z
m-1988 -69 c33 -23 28 -89 -9 -117 -24 -17 -31 -18 -63 -7 -20 6 -41 20 -46
30 -38 72 50 142 118 94z m1354 -1 c18 -16 24 -68 10 -89 -11 -16 -48 -34 -72
-34 -29 0 -70 44 -70 75 0 56 88 88 132 48z m-1684 -120 c70 -43 49 -176 -32
-203 -77 -25 -146 26 -146 110 0 98 93 146 178 93z m2038 -19 c67 -32 83 -93
41 -155 -30 -44 -63 -61 -110 -55 -53 6 -85 38 -93 93 -8 55 5 87 48 113 40
24 69 25 114 4z m-620 -78 c39 -39 45 -86 18 -137 -33 -65 -137 -71 -183 -12
-42 52 -18 149 43 173 47 19 87 11 122 -24z m-770 -24 c54 -69 4 -182 -81
-182 -76 0 -115 41 -115 119 0 76 75 124 149 94 19 -7 40 -21 47 -31z m1738
-54 c14 -6 28 -20 32 -30 6 -19 -19 -68 -35 -68 -5 0 -16 -3 -24 -6 -23 -8
-57 31 -57 66 0 22 6 33 23 40 30 12 32 12 61 -2z m-2067 -118 c123 -75 62
-280 -84 -280 -147 0 -204 163 -93 264 35 32 46 36 93 36 34 0 63 -7 84 -20z
m1403 -2 c54 -27 80 -73 80 -138 0 -52 -21 -89 -70 -125 -89 -66 -230 3 -230
111 0 82 35 134 107 160 52 18 62 17 113 -8z m-699 -71 c109 -72 94 -227 -26
-272 -54 -21 -95 -15 -143 21 -65 50 -79 138 -32 205 50 69 136 89 201 46z
m-1233 -59 c4 -48 -12 -78 -43 -78 -28 0 -45 26 -45 69 0 34 22 52 60 48 21
-2 25 -8 28 -39z m2400 16 c17 -12 22 -25 22 -59 0 -34 -5 -47 -22 -59 -78
-55 -160 43 -93 109 28 29 61 32 93 9z m-811 -169 c21 -9 46 -23 57 -33 47
-42 70 -152 45 -219 -12 -34 -64 -90 -101 -109 -65 -34 -196 -3 -237 55 -42
60 -51 128 -25 189 44 105 162 158 261 117z m-717 -23 c19 -10 50 -40 68 -66
27 -41 32 -57 32 -107 0 -72 -17 -116 -58 -151 -45 -37 -95 -51 -160 -45 -70
7 -117 43 -156 120 -34 68 -31 102 17 174 57 85 173 119 257 75z m-618 -33
c22 -12 48 -66 48 -100 0 -62 -57 -119 -119 -119 -34 0 -96 48 -107 82 -10 33
24 107 60 129 34 21 87 25 118 8z m1891 -10 c34 -15 57 -60 57 -109 0 -34 -6
-48 -34 -76 -60 -60 -148 -43 -180 36 -39 99 60 193 157 149z m-912 -281 c47
-14 113 -68 136 -112 12 -21 17 -56 18 -113 0 -75 -2 -85 -30 -124 -106 -151
-305 -149 -400 6 -26 42 -30 58 -29 114 1 79 26 134 81 180 66 55 147 73 224
49z m-665 -109 c54 -50 70 -129 39 -188 -27 -54 -71 -81 -129 -81 -97 0 -162
69 -152 162 6 56 27 88 76 118 48 29 129 24 166 -11z m1311 11 c55 -33 80
-104 62 -175 -37 -147 -250 -150 -289 -4 -19 71 22 163 85 189 37 16 109 11
142 -10z m-1049 -286 c100 -41 141 -155 93 -259 -77 -171 -335 -139 -365 45
-24 153 129 274 272 214z m758 -55 c114 -55 145 -178 72 -285 -107 -156 -349
-79 -350 112 0 51 19 88 70 137 61 60 134 72 208 36z m-1322 -64 c27 -25 42
-80 32 -118 -3 -13 -17 -35 -31 -49 -70 -70 -188 -19 -188 82 0 98 116 151
187 85z m1870 1 c44 -18 66 -52 66 -100 0 -54 -32 -103 -78 -115 -64 -18 -113
5 -139 67 -25 59 15 131 83 152 16 4 30 9 32 9 1 1 18 -5 36 -13z m-954 -264
c43 -21 70 -72 70 -132 0 -85 -65 -150 -150 -150 -155 0 -200 207 -60 278 53
27 93 28 140 4z m-662 -12 c52 -32 74 -76 69 -138 -8 -114 -122 -184 -217
-135 -46 24 -100 96 -100 134 0 51 46 115 105 147 33 18 107 14 143 -8z m1423
-13 c73 -48 87 -139 35 -218 -49 -74 -149 -90 -220 -35 -57 43 -70 130 -29
209 34 66 146 90 214 44z m-1964 -15 c6 -4 17 -20 23 -36 8 -23 7 -36 -7 -65
-16 -32 -23 -36 -60 -39 -47 -3 -83 22 -83 58 0 26 26 77 42 83 20 8 72 8 85
-1z m2417 -44 c36 -51 7 -108 -53 -108 -47 0 -65 19 -65 67 0 42 23 63 70 63
23 0 38 -7 48 -22z m-1574 -203 c39 -20 57 -78 40 -129 -31 -96 -161 -102
-205 -10 -47 100 62 192 165 139z m-1034 -50 c9 -35 -4 -64 -31 -71 -35 -9
-65 12 -65 44 1 69 80 91 96 27z m1823 19 c39 -33 49 -80 26 -128 -24 -49 -50
-66 -106 -66 -56 0 -93 25 -109 74 -34 104 104 192 189 120z m986 -28 c11 -17
13 -30 6 -48 -22 -59 -111 -46 -111 17 0 54 75 76 105 31z m-2425 -11 c40 -21
60 -53 60 -98 0 -74 -50 -127 -120 -127 -42 0 -64 13 -89 54 -32 52 -28 105
12 143 49 46 86 54 137 28z m2088 -41 c94 -98 -28 -246 -145 -174 -45 27 -61
88 -37 142 21 46 34 58 77 68 45 11 67 3 105 -36z m-1769 -165 c53 -19 66 -75
26 -114 -35 -36 -76 -33 -110 7 -30 36 -28 71 7 101 24 20 34 21 77 6z m1378
-41 c63 -59 -25 -159 -89 -101 -24 22 -24 77 2 103 26 26 58 25 87 -2z m633
-78 c42 -42 14 -120 -42 -120 -43 0 -78 34 -78 76 0 58 77 87 120 44z m-2592
-6 c16 -11 22 -25 22 -51 0 -47 -24 -73 -67 -73 -29 0 -36 5 -49 35 -19 46
-18 52 11 80 28 29 51 31 83 9z m2208 -138 c9 -38 1 -59 -27 -75 -24 -13 -29
-13 -53 2 -27 18 -33 45 -16 78 8 14 21 19 50 19 34 0 41 -4 46 -24z m-1876
-7 c16 -29 5 -49 -25 -49 -14 0 -28 6 -31 14 -7 19 13 56 31 56 8 0 19 -9 25
-21z"/>
<path d="M11893 4151 c-301 -48 -573 -254 -707 -535 -89 -185 -124 -385 -105
-600 28 -319 182 -598 426 -767 164 -114 396 -179 582 -164 450 36 800 361
887 824 35 186 12 455 -53 621 -114 291 -351 511 -640 596 -97 28 -291 40
-390 25z"/>
</g>
</svg>
